<?xml version="1.0" standalone="no"?>
<!DOCTYPE svg PUBLIC "-//W3C//DTD SVG 20010904//EN"
 "http://www.w3.org/TR/2001/REC-SVG-20010904/DTD/svg10.dtd">
<svg version="1.0" xmlns="http://www.w3.org/2000/svg"
 width="920.000000pt" height="920.000000pt" viewBox="0 0 920.000000 920.000000"
 preserveAspectRatio="xMidYMid meet">

<g transform="translate(0.000000,920.000000) scale(0.100000,-0.100000)"
fill="#000000" stroke="none">
<path d="M2841 7285 c-74 -17 -152 -41 -190 -61 -14 -8 -31 -14 -38 -14 -26 0
-283 -184 -359 -257 -118 -114 -157 -166 -205 -278 -11 -27 -27 -63 -35 -80
-39 -85 -47 -189 -29 -380 5 -54 66 -189 109 -240 13 -16 49 -59 78 -95 52
-62 101 -106 268 -240 41 -34 104 -84 140 -113 36 -29 110 -85 165 -124 194
-137 297 -276 329 -440 22 -117 8 -202 -52 -322 -48 -95 -89 -141 -204 -228
-110 -84 -156 -108 -240 -128 -282 -66 -531 79 -532 310 -1 164 126 317 285
344 45 7 48 9 19 10 -23 1 -31 4 -22 10 8 4 23 7 35 6 12 -1 34 -3 49 -4 16 0
29 -8 33 -18 3 -10 23 -29 45 -42 22 -14 48 -41 58 -61 10 -20 23 -35 30 -32
25 8 45 -113 23 -147 -13 -20 -31 -4 -31 26 0 15 -3 24 -6 20 -3 -3 -3 -28 1
-55 6 -43 9 -49 26 -45 11 3 19 2 18 -3 -6 -34 16 -19 40 29 18 34 33 35 27 2
-6 -32 -15 -47 -26 -40 -5 3 -11 1 -15 -5 -10 -16 22 -12 39 6 19 19 20 67 4
147 -11 50 -10 65 5 107 10 29 15 60 11 75 -6 24 -8 25 -25 10 -16 -16 -17
-16 -12 4 3 12 9 21 14 21 5 0 9 11 9 25 0 33 -22 41 -140 50 -155 11 -184 12
-199 1 -11 -8 -13 -8 -8 0 4 7 -7 11 -30 11 -20 0 -39 5 -41 11 -2 7 -8 12
-13 12 -6 0 -8 -4 -4 -9 6 -11 -58 -26 -79 -18 -7 3 -18 1 -23 -4 -5 -5 -23
-12 -39 -15 -16 -2 -44 -12 -62 -20 -18 -8 -42 -17 -53 -19 -26 -5 -90 -56
-121 -97 -73 -95 -115 -199 -126 -310 -6 -61 -3 -88 17 -163 13 -49 24 -96 24
-102 0 -7 4 -13 10 -13 5 0 7 -6 4 -12 -11 -32 74 -151 148 -208 83 -64 163
-108 249 -136 110 -36 151 -58 179 -96 51 -69 71 -166 83 -403 4 -77 11 -143
16 -146 6 -4 6 -14 -1 -28 -14 -25 -4 -74 13 -64 6 3 6 1 -1 -8 -15 -16 -17
-99 -3 -99 6 0 10 -14 10 -31 0 -27 2 -30 15 -19 12 10 15 9 15 -6 1 -18 1
-18 15 0 9 12 13 35 11 60 -1 23 1 49 6 58 5 10 4 19 -2 23 -6 4 -8 10 -6 14
7 11 20 149 19 199 0 23 4 42 8 42 5 0 10 -78 10 -172 2 -209 5 -193 19 110
12 257 27 360 66 439 31 63 67 95 176 152 148 78 249 152 353 257 176 179 262
346 294 572 11 72 25 140 31 153 17 33 51 59 77 59 34 0 53 -38 63 -126 22
-199 61 -278 180 -362 120 -86 170 -138 155 -162 -3 -4 1 -11 7 -13 10 -4 9
-8 -2 -17 -12 -9 -10 -10 13 -6 18 4 27 2 27 -6 1 -7 7 -2 15 12 8 14 14 19
15 12 0 -7 5 -10 10 -7 6 4 8 11 5 16 -4 5 -2 9 4 9 5 0 12 8 14 18 3 9 6 -5
7 -33 l1 -50 18 60 c9 33 29 79 44 103 43 66 217 252 237 252 25 0 70 -54 120
-146 27 -49 71 -106 114 -151 87 -88 96 -99 96 -116 0 -8 6 -20 14 -26 10 -8
12 -21 6 -46 -5 -23 -4 -38 5 -45 15 -12 25 -3 25 24 0 17 2 18 10 6 7 -12 10
-11 16 5 3 11 15 38 25 60 l19 40 1 -50 1 -50 14 63 c17 80 27 98 94 169 54
58 112 137 191 262 l40 63 23 -21 c12 -12 35 -58 51 -104 15 -45 37 -100 48
-122 24 -48 112 -163 147 -190 73 -56 108 -101 125 -160 10 -33 20 -67 22 -75
2 -8 7 -67 9 -130 3 -67 11 -123 18 -135 21 -33 26 -64 10 -58 -11 4 -14 -4
-13 -33 2 -31 3 -33 6 -11 2 15 8 27 13 27 4 0 7 -8 5 -17 -2 -10 -4 -29 -4
-43 -1 -20 -3 -22 -11 -10 -7 11 -9 0 -6 -35 2 -27 5 -69 5 -93 1 -26 5 -41
11 -37 6 3 10 1 10 -4 0 -6 -4 -11 -10 -11 -5 0 -10 -25 -10 -55 0 -30 5 -55
10 -55 6 0 10 6 11 13 0 6 4 2 9 -10 10 -23 30 -32 30 -12 0 5 5 7 10 4 9 -6
13 55 12 173 -1 47 22 35 26 -13 5 -69 12 -51 12 31 0 106 18 397 31 514 6 52
19 113 29 135 11 22 54 71 95 109 48 43 101 105 144 170 86 126 144 185 169
170 9 -6 51 -59 92 -118 102 -145 155 -185 336 -255 79 -30 118 -60 145 -111
7 -14 14 -27 14 -30 0 -3 6 -15 13 -27 7 -13 10 -23 6 -23 -3 0 -2 -6 4 -12
10 -13 29 -154 22 -173 -6 -21 1 -70 13 -77 8 -5 7 -9 -5 -13 -12 -5 -15 -13
-10 -28 4 -12 7 -39 7 -59 0 -21 2 -38 6 -38 4 0 5 -9 2 -20 -4 -16 -2 -19 11
-14 12 4 16 0 16 -15 0 -12 4 -21 9 -21 5 0 7 9 4 20 -3 11 0 26 6 34 9 10 9
15 1 18 -8 2 -8 12 1 33 16 39 12 85 -8 107 -9 10 -13 21 -10 25 4 3 7 1 7 -5
0 -19 16 -14 17 6 6 83 12 134 17 139 3 4 7 -2 8 -13 1 -10 2 -26 4 -34 1 -8
3 -26 4 -40 2 -14 6 4 10 40 27 242 42 295 95 355 15 17 56 73 91 125 35 52
91 136 125 185 33 50 63 94 67 99 3 5 -11 -4 -31 -20 -20 -16 -37 -32 -37 -35
0 -4 -7 -10 -15 -13 -9 -3 -3 10 14 32 16 20 33 55 38 77 6 28 14 39 25 37 9
-1 18 7 21 18 5 18 3 19 -10 9 -11 -10 -16 -10 -22 -1 -5 8 -19 -2 -44 -28
-20 -22 -42 -40 -48 -40 -7 0 -4 9 8 23 39 43 36 51 -6 12 -72 -68 -85 -79
-126 -111 -55 -43 -168 -86 -240 -92 -78 -6 -148 23 -205 84 -49 54 -61 81
-61 151 -1 77 28 116 131 177 198 117 355 285 395 422 21 71 21 188 1 244 -38
104 -131 201 -227 236 -75 27 -193 27 -283 -1 -87 -27 -111 -43 -208 -139 -66
-66 -138 -184 -138 -228 0 -11 -4 -17 -9 -14 -4 3 -16 -25 -25 -62 -10 -37
-23 -87 -31 -112 -19 -66 -24 -108 -34 -278 -8 -136 -12 -159 -36 -210 -16
-31 -35 -66 -44 -76 -14 -16 -14 -18 -1 -14 26 8 79 87 95 140 9 31 15 92 15
152 1 187 33 336 106 495 28 60 51 91 117 155 63 62 83 76 85 62 2 -11 -11
-34 -32 -55 -20 -20 -36 -40 -36 -45 0 -4 -13 -24 -29 -44 -34 -45 -95 -189
-117 -281 -12 -46 -17 -117 -19 -236 -2 -191 -12 -241 -60 -289 -63 -64 -267
-241 -293 -255 -19 -10 -14 -2 18 27 54 48 48 65 -9 24 -82 -59 -190 -66 -262
-17 -75 53 -115 190 -126 435 -5 121 -4 128 26 215 40 115 91 214 173 340 83
128 226 428 271 570 80 249 117 447 117 614 0 180 -36 293 -121 386 -51 55
-146 99 -197 91 -21 -3 -53 -7 -72 -9 -20 -2 -48 -11 -63 -19 -36 -18 -146
-110 -146 -122 -1 -5 -8 -14 -16 -20 -8 -6 -42 -76 -75 -156 -34 -80 -67 -158
-74 -175 -8 -16 -24 -80 -35 -142 -12 -61 -28 -130 -36 -154 -26 -72 -45 -168
-60 -294 -7 -66 -23 -185 -33 -265 -13 -93 -22 -236 -26 -400 -11 -441 -19
-503 -82 -620 l-24 -45 35 40 c78 88 109 215 103 411 -7 213 3 495 22 624 10
74 29 203 40 285 12 83 40 220 61 305 22 85 44 173 49 195 12 50 93 246 125
300 21 36 117 135 130 135 14 0 2 -35 -29 -82 -47 -74 -82 -145 -97 -198 -7
-25 -24 -60 -37 -79 -26 -35 -46 -105 -44 -154 1 -15 -12 -64 -28 -108 -29
-77 -71 -302 -90 -484 -5 -44 -15 -127 -23 -185 -16 -113 -17 -181 -3 -173 4
3 5 -5 0 -18 -4 -13 -6 -44 -4 -69 1 -25 3 -54 2 -65 0 -11 -3 -108 -5 -215
-8 -325 -11 -332 -179 -498 -116 -115 -158 -151 -158 -138 0 3 13 20 30 38 16
18 30 37 30 43 0 5 -6 3 -13 -6 -30 -40 -119 -59 -165 -35 -47 24 -54 59 -63
311 -4 127 -12 289 -19 360 -6 72 -9 159 -6 195 l6 65 -15 -54 c-20 -72 -28
-78 -21 -17 4 34 2 52 -6 58 -10 6 -10 10 1 17 9 6 10 10 2 16 -14 8 -43 -13
-35 -26 3 -5 -18 -39 -46 -76 -29 -36 -48 -63 -42 -59 7 4 6 -12 -4 -41 -14
-48 -49 -205 -78 -358 -9 -44 -28 -118 -44 -165 l-29 -85 -84 -37 c-46 -20
-99 -37 -117 -37 -32 -1 -31 1 40 48 40 27 81 62 90 79 16 27 54 152 103 347
13 50 31 107 39 128 19 43 13 49 -8 10 l-15 -28 -1 30 c-1 26 -4 23 -16 -20
-8 -27 -19 -59 -24 -70 -6 -11 -28 -91 -50 -178 -47 -186 -69 -230 -134 -274
-40 -27 -58 -33 -103 -33 -98 0 -130 34 -158 168 -25 117 -14 257 27 356 27
62 81 151 117 189 61 66 156 85 239 47 23 -10 42 -16 42 -12 0 4 4 2 8 -4 13
-20 70 -44 88 -37 13 5 16 3 11 -10 -6 -16 -4 -16 26 -1 17 9 40 23 50 32 21
19 23 57 3 49 -10 -4 -13 -1 -9 9 3 7 9 14 14 14 5 0 9 5 9 12 0 9 -3 9 -12 0
-19 -19 -25 -15 -38 35 -18 63 -148 207 -191 209 -10 1 -31 6 -46 12 -85 33
-185 32 -268 -2 -77 -33 -205 -135 -255 -206 -34 -47 -81 -137 -78 -147 2 -4
-1 -9 -6 -10 -14 -3 -65 -176 -81 -275 -16 -101 -25 -122 -63 -142 -23 -13
-24 -15 -7 -16 54 -1 90 55 105 162 14 99 41 210 55 228 6 8 18 30 25 49 8 19
40 70 72 112 43 58 76 91 131 127 55 36 76 46 84 37 8 -9 -6 -27 -54 -69 -90
-81 -138 -149 -183 -261 -30 -72 -44 -125 -55 -208 -8 -62 -20 -130 -26 -151
-10 -36 -5 -127 8 -164 3 -7 -17 9 -45 37 -42 42 -57 51 -86 51 -27 0 -40 6
-52 25 -9 14 -20 22 -25 19 -5 -3 -9 -1 -9 4 0 4 -16 16 -35 25 -29 14 -43 34
-86 119 -61 123 -125 204 -251 319 -140 128 -209 185 -363 296 -190 137 -381
330 -414 418 -50 132 -8 264 133 412 130 138 296 251 416 283 68 18 191 15
231 -6 186 -96 209 -278 55 -428 -47 -46 -54 -55 -28 -40 46 26 100 88 124
140 23 54 26 170 5 213 -12 25 -12 32 3 60 18 36 24 33 52 -24 35 -70 30 -184
-13 -273 -30 -61 -112 -147 -159 -166 -22 -9 -40 -18 -40 -21 0 -3 3 -4 8 -3
15 5 90 -32 96 -47 3 -10 12 -15 19 -12 8 3 20 1 28 -3 8 -5 19 -4 26 2 10 8
13 7 14 -3 0 -8 9 20 20 61 10 41 24 79 29 84 13 13 13 9 -5 -39 -17 -48 -19
-68 -5 -60 6 3 10 1 10 -6 0 -12 67 110 133 241 30 62 32 71 32 175 0 105 -2
114 -34 180 -112 228 -406 351 -690 290z m-71 -117 c0 -6 -7 -8 -15 -4 -8 3
-15 2 -15 -3 0 -5 -11 -8 -25 -8 l-24 0 21 17 c22 17 58 16 58 -2z m-159 -48
c16 0 -52 -64 -106 -100 -27 -18 -66 -48 -87 -68 -20 -19 -41 -31 -47 -28 -6
4 -22 -11 -36 -33 -14 -22 -36 -48 -49 -56 -27 -18 -114 -155 -150 -238 -69
-156 -69 -307 0 -451 13 -27 24 -52 24 -55 0 -3 -25 20 -56 49 -31 30 -64 62
-74 72 -21 19 -36 159 -26 238 13 100 81 254 136 311 19 20 60 66 90 103 30
36 63 66 72 66 9 0 34 16 54 35 34 32 126 102 194 147 14 9 31 15 38 12 8 -2
18 -4 23 -4z m3307 -297 c40 -60 45 -88 38 -221 -3 -70 -11 -156 -16 -192 -19
-128 -111 -394 -194 -559 -32 -62 -56 -115 -53 -117 9 -9 149 303 190 426 70
206 85 291 91 510 3 122 12 165 28 136 16 -28 20 -169 8 -246 -6 -41 -16 -102
-21 -135 -14 -90 -46 -211 -78 -295 -15 -41 -34 -93 -41 -115 -7 -22 -43 -102
-81 -177 -38 -75 -69 -144 -69 -152 0 -21 23 -25 38 -7 10 14 12 12 8 -10 -8
-48 -46 -108 -108 -171 -33 -35 -51 -51 -39 -37 14 17 18 29 11 32 -6 4 -6 5
2 3 6 -1 22 18 35 43 26 52 28 60 11 43 -10 -10 -36 -4 -56 13 -2 2 9 23 23
47 l27 43 -35 -38 c-32 -34 -38 -37 -58 -27 -21 12 -21 16 -16 129 8 159 34
455 46 516 5 28 30 131 56 229 66 257 122 356 201 356 24 0 37 -7 52 -27z
m199 -65 c-2 -18 -4 -6 -4 27 0 33 2 48 4 33 2 -15 2 -42 0 -60z m-2590 -10
c-3 -8 -6 -5 -6 6 -1 11 2 17 5 13 3 -3 4 -12 1 -19z m2580 -140 c-2 -13 -4
-5 -4 17 -1 22 1 32 4 23 2 -10 2 -28 0 -40z m-11 -83 c-4 -30 -10 -65 -15
-77 -4 -13 -11 -45 -15 -73 -11 -79 -42 -186 -75 -257 -17 -37 -31 -72 -31
-80 -1 -15 -30 -57 -30 -42 0 5 13 43 29 84 56 148 67 186 113 403 12 53 23
97 25 97 3 0 2 -25 -1 -55z m-2676 -66 c-11 -24 -20 -38 -20 -31 0 19 29 86
35 80 3 -3 -4 -25 -15 -49z m2489 -531 c-25 -64 -79 -161 -86 -154 -8 8 90
206 103 206 2 0 -6 -24 -17 -52z m-3449 -110 c0 -16 -3 -19 -11 -11 -6 6 -8
16 -5 22 11 17 16 13 16 -11z m4413 -238 c53 -42 59 -139 14 -212 -12 -19 -52
-68 -88 -107 -116 -124 -220 -146 -242 -50 -18 74 47 259 115 328 61 62 151
81 201 41z m254 -42 c-2 -13 -4 -5 -4 17 -1 22 1 32 4 23 2 -10 2 -28 0 -40z
m-138 -45 c1 -55 -37 -139 -90 -197 -72 -79 -167 -159 -179 -151 -7 4 8 21 34
42 107 83 186 214 186 308 0 31 5 47 18 54 20 11 30 -6 31 -56z m-1439 -170
c-11 -17 -11 -17 -6 0 3 10 6 24 7 30 0 9 2 9 5 0 3 -7 0 -20 -6 -30z m-2423
-109 c-9 -9 -28 6 -21 18 4 6 10 6 17 -1 6 -6 8 -13 4 -17z m77 -199 c13 -49
19 -92 15 -110 -4 -16 -7 -59 -8 -96 0 -36 -5 -69 -10 -75 -4 -5 -18 -41 -29
-79 -22 -73 -106 -215 -128 -215 -7 0 -18 -13 -26 -30 -7 -16 -18 -30 -25 -30
-6 0 -13 -3 -15 -7 -9 -23 -201 -156 -241 -169 -12 -4 -34 -15 -50 -26 -23
-17 -37 -19 -94 -12 l-66 7 28 20 c16 12 62 36 103 54 100 43 139 70 240 166
171 164 221 294 221 577 0 85 4 166 11 200 3 18 57 -109 74 -175z m402 12 c4
-4 0 -7 -9 -7 -9 0 -18 4 -21 9 -7 10 20 9 30 -2z m-1106 -26 c28 -20 39 -51
18 -51 -27 0 -139 60 -133 71 10 15 84 2 115 -20z m-442 -40 c-109 -71 -187
-184 -217 -317 -12 -52 -7 -183 8 -213 5 -9 11 -32 14 -51 l7 -35 -50 55 -49
55 -1 85 c0 194 70 327 223 419 34 21 106 48 131 50 5 1 -25 -21 -66 -48z
m4572 36 c0 -2 -12 -14 -27 -28 l-28 -24 24 28 c23 25 31 32 31 24z m-2846
-194 c7 -48 -1 -53 -32 -20 -39 41 -48 107 -16 107 8 0 13 4 10 9 -4 5 -3 17
1 27 7 18 24 -41 37 -123z m-1120 -29 c3 -47 3 -90 0 -96 -11 -18 -32 45 -22
64 6 14 5 16 -7 12 -8 -4 -15 -1 -15 5 0 6 5 11 11 11 8 0 8 4 0 13 -8 10 -7
22 1 45 7 18 15 32 19 32 3 0 9 -39 13 -86z m2646 40 c0 -8 -4 -14 -10 -14 -5
0 -10 9 -10 21 0 11 5 17 10 14 6 -3 10 -13 10 -21z m-150 1 c0 -8 -4 -15 -10
-15 -5 0 -7 7 -4 15 4 8 8 15 10 15 2 0 4 -7 4 -15z m-100 -175 c-6 -11 -13
-20 -16 -20 -2 0 0 9 6 20 6 11 13 20 16 20 2 0 0 -9 -6 -20z m1056 -14 c-6
-35 -37 -78 -52 -72 -7 3 -15 0 -17 -7 -2 -7 -7 -9 -11 -6 -5 5 72 108 82 109
1 0 0 -11 -2 -24z m-3426 -507 c0 -5 -4 -9 -10 -9 -5 0 -10 7 -10 16 0 8 5 12
10 9 6 -3 10 -10 10 -16z m3064 -136 c-1 -15 3 -31 9 -35 9 -5 9 -10 1 -18 -8
-8 -10 -60 -6 -173 4 -137 3 -160 -9 -150 -10 8 -14 31 -13 75 1 34 2 123 3
196 1 72 5 132 10 132 4 0 7 -12 5 -27z m-3176 -443 c-1 -34 -18 -53 -18 -21
0 20 9 51 15 51 2 0 3 -14 3 -30z m-6 -72 c-7 -7 -12 -8 -12 -2 0 6 3 14 7 17
3 4 9 5 12 2 2 -3 -1 -11 -7 -17z m3095 -10 c-3 -8 -6 -5 -6 6 -1 11 2 17 5
13 3 -3 4 -12 1 -19z"/>
<path d="M2365 6951 c-3 -5 -1 -12 5 -16 5 -3 10 1 10 9 0 18 -6 21 -15 7z"/>
<path d="M2070 6210 c0 -5 5 -10 11 -10 5 0 7 5 4 10 -3 6 -8 10 -11 10 -2 0
-4 -4 -4 -10z"/>
<path d="M5661 5620 c-12 -17 -17 -30 -11 -30 6 0 13 7 16 15 4 8 14 15 24 15
11 0 22 6 26 13 4 6 4 9 -1 5 -4 -4 -13 -3 -20 2 -8 7 -18 1 -34 -20z"/>
<path d="M6070 4585 c-7 -9 -10 -18 -7 -21 3 -3 10 4 17 15 13 25 8 27 -10 6z"/>
<path d="M3339 6148 c-1 -24 -1 -65 1 -91 2 -47 -13 -82 -31 -71 -12 7 -11 66
1 98 5 14 6 41 3 58 l-7 33 -7 -45 c-4 -25 -8 -75 -8 -111 -1 -52 3 -69 19
-87 24 -25 36 -27 70 -7 34 19 45 19 29 -2 -13 -15 -12 -15 7 -5 12 6 24 19
28 28 10 26 5 96 -9 139 l-14 40 4 -40 4 -40 -16 50 c-9 29 -29 60 -45 73
l-28 24 -1 -44z m68 -165 c-3 -10 -5 -2 -5 17 0 19 2 27 5 18 2 -10 2 -26 0
-35z"/>
<path d="M5241 5264 c0 -11 3 -14 6 -6 3 7 2 16 -1 19 -3 4 -6 -2 -5 -13z"/>
<path d="M7520 5119 c0 -5 5 -7 10 -4 6 3 10 8 10 11 0 2 -4 4 -10 4 -5 0 -10
-5 -10 -11z"/>
<path d="M7411 4964 c-11 -15 -18 -31 -14 -37 4 -6 1 -7 -6 -3 -8 5 -14 0 -18
-13 -3 -12 -9 -21 -14 -21 -5 0 -9 -8 -9 -17 1 -15 3 -15 19 5 12 14 21 18 23
10 3 -7 12 -9 22 -5 11 4 16 13 12 22 -3 8 -1 15 4 15 6 0 10 5 10 11 0 6 -7
9 -15 5 -8 -3 -15 -1 -15 4 0 6 10 10 21 10 17 0 19 3 10 13 -6 8 -8 17 -4 20
3 4 4 7 0 7 -3 0 -15 -12 -26 -26z"/>
<path d="M6012 4694 c-7 -8 -8 -14 -3 -14 10 0 25 19 20 25 -2 1 -10 -3 -17
-11z"/>
<path d="M4045 4259 c-10 -15 1 -23 20 -15 9 3 13 10 10 16 -8 13 -22 13 -30
-1z"/>
<path d="M4020 4108 c0 -3 9 -6 20 -5 11 1 20 5 20 9 0 3 -9 6 -20 5 -11 -1
-20 -5 -20 -9z"/>
<path d="M4740 4109 c0 -5 5 -7 10 -4 6 3 10 8 10 11 0 2 -4 4 -10 4 -5 0 -10
-5 -10 -11z"/>
<path d="M4810 4078 c0 -9 5 -20 10 -23 13 -8 13 5 0 25 -8 13 -10 13 -10 -2z"/>
<path d="M4782 3858 c-5 -194 -12 -242 -36 -246 -18 -4 -18 1 -12 80 4 45 9
117 13 158 8 103 -9 80 -23 -33 -7 -51 -17 -123 -23 -161 -10 -61 -9 -73 7
-105 43 -83 161 -82 206 2 17 30 18 41 7 108 -6 41 -20 115 -31 164 -11 50
-20 102 -20 118 0 15 -4 27 -10 27 -5 0 -10 -5 -10 -10 0 -6 -8 -5 -19 2 -11
7 -18 15 -16 18 2 3 -4 11 -13 17 -16 9 -17 -2 -20 -139z m85 -265 c-3 -10 -5
-4 -5 12 0 17 2 24 5 18 2 -7 2 -21 0 -30z"/>
<path d="M4851 3994 c0 -11 3 -14 6 -6 3 7 2 16 -1 19 -3 4 -6 -2 -5 -13z"/>
<path d="M4034 3944 c3 -9 6 -22 6 -30 0 -8 8 -14 17 -14 13 0 14 3 5 12 -7 7
-12 20 -12 30 0 10 -5 18 -11 18 -6 0 -8 -7 -5 -16z"/>
<path d="M3982 3820 c0 -14 2 -19 5 -12 2 6 2 18 0 25 -3 6 -5 1 -5 -13z"/>
<path d="M4050 3821 c0 -7 -6 -11 -14 -8 -11 4 -14 -23 -19 -141 -6 -168 -11
-192 -39 -192 -18 0 -20 4 -13 48 12 82 23 226 17 241 -6 17 -40 -163 -49
-260 -7 -77 10 -120 58 -145 65 -33 162 12 175 83 6 32 -28 248 -56 358 l-8
30 -1 -34 -1 -35 -25 34 c-14 19 -25 28 -25 21z"/>
<path d="M6890 3631 c0 -5 5 -13 10 -16 6 -3 10 -2 10 4 0 5 -4 13 -10 16 -5
3 -10 2 -10 -4z"/>
<path d="M6893 3584 c-3 -8 -1 -20 6 -27 14 -14 47 15 37 32 -10 16 -36 13
-43 -5z"/>
<path d="M5762 3470 c0 -19 2 -27 5 -17 2 9 2 25 0 35 -3 9 -5 1 -5 -18z"/>
<path d="M5677 3350 c-3 -11 -1 -20 4 -20 5 0 9 9 9 20 0 11 -2 20 -4 20 -2 0
-6 -9 -9 -20z"/>
<path d="M5705 3349 c-4 -6 -5 -12 -2 -15 2 -3 7 2 10 11 7 17 1 20 -8 4z"/>
<path d="M6891 3167 c-2 -235 -7 -277 -34 -277 -17 0 -19 4 -13 38 4 20 9 111
11 202 l4 165 -14 -105 c-7 -58 -18 -131 -24 -164 -17 -96 -16 -188 3 -225 36
-69 140 -75 188 -11 30 41 31 108 2 260 -12 69 -26 147 -29 175 -5 38 -9 45
-16 32 -14 -25 -24 -21 -26 10 0 15 -6 29 -12 31 -5 2 -8 9 -5 15 2 7 -4 17
-15 24 -18 11 -19 5 -20 -170z"/>
<path d="M5695 3310 c3 -5 8 -10 11 -10 2 0 4 5 4 10 0 6 -5 10 -11 10 -5 0
-7 -4 -4 -10z"/>
<path d="M5660 3295 c0 -10 9 -15 28 -14 16 1 20 3 10 6 -10 2 -18 9 -18 14 0
5 -4 9 -10 9 -5 0 -10 -7 -10 -15z"/>
<path d="M5696 3142 c-3 -6 -1 -14 5 -17 15 -10 25 3 12 16 -7 7 -13 7 -17 1z"/>
<path d="M2495 3020 c-3 -5 -1 -10 4 -10 6 0 11 5 11 10 0 6 -2 10 -4 10 -3 0
-8 -4 -11 -10z"/>
<path d="M5695 2830 c-3 -5 -1 -10 4 -10 6 0 11 5 11 10 0 6 -2 10 -4 10 -3 0
-8 -4 -11 -10z"/>
<path d="M5678 2778 c-18 -35 -22 -88 -7 -88 5 0 9 -5 9 -11 0 -5 -4 -8 -9 -5
-5 3 -8 -5 -8 -19 0 -14 3 -22 8 -19 10 6 12 -73 10 -291 -2 -181 -7 -215 -32
-215 -22 0 -23 6 -9 115 14 110 20 249 10 238 -4 -4 -11 -39 -14 -78 -4 -38
-16 -115 -27 -169 -19 -86 -20 -106 -10 -152 22 -95 101 -132 181 -83 70 43
71 56 35 267 -13 78 -27 174 -31 212 -7 73 -24 97 -24 33 0 -55 -17 -28 -25
37 -8 75 -9 83 -18 98 -5 7 -3 12 3 12 11 0 11 16 -2 133 -3 27 -22 20 -40
-15z"/>
<path d="M5652 2580 c0 -14 2 -19 5 -12 2 6 2 18 0 25 -3 6 -5 1 -5 -13z"/>
<path d="M5652 2520 c0 -14 2 -19 5 -12 2 6 2 18 0 25 -3 6 -5 1 -5 -13z"/>
<path d="M2520 2430 c0 -5 5 -10 10 -10 6 0 10 5 10 10 0 6 -4 10 -10 10 -5 0
-10 -4 -10 -10z"/>
<path d="M2522 2345 c-15 -8 -20 -15 -12 -20 8 -5 8 -11 1 -19 -6 -7 -7 -16
-3 -21 4 -4 -3 -4 -15 -1 -23 7 -23 6 -21 -66 0 -40 3 -57 5 -38 2 19 6 42 9
50 22 61 27 -230 8 -412 -5 -46 -10 -58 -23 -58 -10 0 -20 2 -23 5 -2 3 1 53
8 112 17 149 23 263 12 257 -4 -3 -8 -22 -8 -43 0 -20 -8 -84 -19 -142 -42
-231 -38 -281 24 -319 55 -34 131 -19 173 35 29 36 28 50 -12 293 -19 114 -37
225 -39 247 -2 25 -5 11 -6 -35 -2 -77 -18 -142 -21 -90 -5 77 -11 128 -19
152 -7 20 -6 28 5 32 15 6 20 81 7 89 -5 2 -19 -2 -31 -8z"/>
</g>
</svg>
